<?xml version="1.0" encoding="utf-8"?>
<!-- Generator: Adobe Illustrator 24.0.1, SVG Export Plug-In . SVG Version: 6.00 Build 0)  -->
<svg version="1.1" id="Layer_1" xmlns="http://www.w3.org/2000/svg" xmlns:xlink="http://www.w3.org/1999/xlink" x="0px" y="0px"
	 viewBox="0 0 150 22" style="enable-background:new 0 0 150 22;" xml:space="preserve">
<style type="text/css">
	.st0{fill-rule:evenodd;clip-rule:evenodd;}
	.st1{fill-rule:evenodd;clip-rule:evenodd;fill:url(#Path_6_);}
	.st2{fill-rule:evenodd;clip-rule:evenodd;fill:#DF1B12;}
</style>
<title>logo</title>
<g id="high-res-mocks">
	<g id="B2C-header-_x2F_-desktop-wide-_x2F_-subcategory-page-Copy-4" transform="translate(-80.000000, -24.000000)">
		<g id="first-level-nav">
			<g id="logo" transform="translate(80.000000, 24.000000)">
				<g id="Group" transform="translate(0.000000, 3.142857)">
					<path id="Path" class="st0" d="M15.3,0.2H0.9c-0.6,0-0.9,1-0.9,2s0.3,2,0.9,2h5.1v11.5c0,0.6,1,0.9,2.1,0.9s2.2-0.2,2.2-0.9
						V4.3h5.1c0.6,0,0.9-1,0.9-2S15.9,0.2,15.3,0.2z"/>
					<path id="Shape" d="M17,8.3C17,3.8,20.8,0,25.6,0c4.7,0,8.6,3.7,8.6,8.3s-3.8,8.3-8.6,8.3S17,12.9,17,8.3z M25.6,12.5
						c2.4,0,4.3-1.9,4.3-4.2S28,4.2,25.6,4.2s-4.3,1.9-4.3,4.2S23.1,12.5,25.6,12.5z"/>
					<path id="Path_1_" class="st0" d="M61.7,7.1c0-3.9-3.3-7.1-7.3-7.1c-2.1,0-3.9,0.8-5.2,2.1C47.8,0.9,45.9,0,43.9,0
						c-4,0-7.3,3.1-7.3,7.1v8.6c0,0.6,1,0.9,2.1,0.9c1,0,2.1-0.3,2.1-0.9V7.1c0-1.7,1.3-3,3.1-3c1.7,0,3.1,1.3,3.1,3v8.6
						c0,0.6,1,0.9,2.1,0.9c1,0,2.1-0.3,2.1-0.9V7.1c0-1.7,1.3-3,3.1-3c1.7,0,3.1,1.3,3.1,3v8.6c0,0.6,1,0.9,2.1,0.9
						c1,0,2.1-0.3,2.1-0.9V7.1L61.7,7.1z"/>
					<path id="Path_2_" class="st0" d="M124.6,7.1c0-3.9-3.3-7.1-7.3-7.1c-2.1,0-3.9,0.8-5.2,2.1c-1.3-1.3-3.2-2.1-5.2-2.1
						c-4,0-7.3,3.1-7.3,7.1v8.6c0,0.6,1,0.9,2.1,0.9c1,0,2.1-0.3,2.1-0.9V7.1c0-1.7,1.3-3,3.1-3c1.7,0,3.1,1.3,3.1,3v8.6
						c0,0.6,1,0.9,2.1,0.9s2.1-0.3,2.1-0.9V7.1c0-1.7,1.3-3,3.1-3c1.7,0,3.1,1.3,3.1,3v8.6c0,0.6,1,0.9,2.1,0.9c1,0,2.1-0.3,2.1-0.9
						V7.1L124.6,7.1z"/>
					<path id="Path_3_" class="st0" d="M78.3,0.2H63.9c-0.6,0-0.9,1-0.9,2s0.3,2,0.9,2h5.1v11.5c0,0.6,1,0.9,2.1,0.9
						c1,0,2.1-0.3,2.1-0.9V4.3h5.1c0.6,0,0.9-1,0.9-2C79.2,1.2,78.9,0.2,78.3,0.2z"/>
					<path id="Shape_1_" d="M80,8.3C80,3.8,83.8,0,88.6,0c4.7,0,8.6,3.7,8.6,8.3s-3.8,8.3-8.6,8.3S80,12.9,80,8.3z M88.5,12.5
						c2.4,0,4.3-1.9,4.3-4.2s-1.9-4.2-4.3-4.2c-2.4,0-4.3,1.9-4.3,4.2C84.2,10.7,86.1,12.5,88.5,12.5z"/>
				</g>
				<g id="Group_1_" transform="translate(127.105263, 0.000000)">
					
						<radialGradient id="Path_6_" cx="-709.9856" cy="420.0601" r="1.0102" gradientTransform="matrix(4.5166 20.5643 20.5643 -4.5166 -5416.0835 16504.5352)" gradientUnits="userSpaceOnUse">
						<stop  offset="4.000000e-02" style="stop-color:#FFFFFF"/>
						<stop  offset="0.3977" style="stop-color:#FDFDFD;stop-opacity:0.7392"/>
						<stop  offset="0.5266" style="stop-color:#F6F6F6;stop-opacity:0.6452"/>
						<stop  offset="0.6185" style="stop-color:#EBEBEB;stop-opacity:0.5782"/>
						<stop  offset="0.6928" style="stop-color:#DADADA;stop-opacity:0.524"/>
						<stop  offset="0.7564" style="stop-color:#C4C4C4;stop-opacity:0.4776"/>
						<stop  offset="0.8128" style="stop-color:#A8A8A8;stop-opacity:0.4365"/>
						<stop  offset="0.8638" style="stop-color:#888888;stop-opacity:0.3993"/>
						<stop  offset="0.9106" style="stop-color:#626262;stop-opacity:0.3652"/>
						<stop  offset="0.9542" style="stop-color:#373737;stop-opacity:0.3334"/>
						<stop  offset="0.9929" style="stop-color:#090909;stop-opacity:0.3052"/>
						<stop  offset="1" style="stop-color:#000000;stop-opacity:0.3"/>
					</radialGradient>
					<path id="Path_4_" class="st1" d="M9.3,0.7C3.5,1.9-0.3,7.5,0.9,13.2s7,9.3,12.9,8.1c5.8-1.2,9.6-6.8,8.4-12.5
						C21,3.1,15.2-0.6,9.3,0.7"/>
					<g id="Path_5_" transform="translate(0.000000, 0.785714)">
						<path class="st2" d="M14.4,14.9c-0.3-0.2-0.9-0.3-1.3,0.1L13,15c-0.7,0.6-2.1,1.8-3,1.6c-0.7-0.2-0.9-0.9-0.8-1.5
							c0-0.2,0-0.3,0.1-0.5l0,0l0,0c0-0.1,0-0.2,0.1-0.4c0.1-0.5,0.9-3.9,1.3-5.6c0.1-0.2,0.1-0.6,0.1-0.8c-0.1-0.4-0.3-0.5-0.8-0.6
							C9.5,7.2,8.8,7.3,8.6,7.9c-0.2,0.6-0.4,1.5-0.9,4.1c0,0.1-0.1,0.2-0.1,0.4l0,0c-0.1,0.3-0.2,0.6-0.6,0.5
							c-0.3-0.1-0.4-0.5-0.4-0.8v-0.1v-0.6c-0.1-0.9-0.1-2,0-3.1l0.1-0.6l0.1-1.1c0-0.3,0-0.5-0.2-0.6C6.5,5.7,6.2,5.7,5.9,5.7
							C5.7,5.8,5.4,5.9,5.3,6.1C5.1,6.2,5.1,6.4,5.1,6.7C5,7.2,5,7.9,5,8.4c-0.1,1.2-0.1,2.3,0,3.5c0,0.1,0,0.2,0,0.2l0,0l0,0l0,0
							c0,0.5-0.1,0.8-0.4,0.8c-0.3,0-0.5-0.3-0.6-0.6v-0.2c-0.2-0.6-0.2-1.3-0.3-2L3.6,9.7C3.6,9,3.4,8.6,3.4,8
							c0-0.1-0.1-0.3-0.2-0.4c-0.1,0-0.2-0.1-0.5,0.1c-0.6,0.3-0.6,1-0.6,1c0,0.5,0.1,1.1,0.1,1.6c0.2,1.2,0.3,2,0.5,2.9v0.1
							c0.1,0.3,0,0.5-0.1,0.6c-0.1,0.1-0.2,0.1-0.3,0c-0.2-0.1-0.4-0.4-0.5-0.6l0,0C1.5,12.6,1.3,11.8,1,11v-0.1
							c0,0-0.1-0.2-0.2-0.2s-0.2,0-0.4,0.2c-0.3,0.3-0.1,1.2,0,1.6c0.5,2.4,2.4,6.1,6.1,7.5c2.8,1.1,4.5-0.3,8-3.3
							c0.3-0.2,0.6-0.6,0.7-1c0-0.2,0-0.3-0.2-0.6C14.8,15.1,14.6,14.9,14.4,14.9z"/>
						<path class="st2" d="M22.4,6.4c-1-3.1-2.9-4.5-3.2-4.7c-0.1-0.1-0.7-0.5-1-0.6c-0.1,0-0.2,0-0.3-0.1l0,0c-0.1,0-0.1,0-0.2,0
							c-0.1,0-0.1,0.1-0.1,0.1c0,0.1,0.2,0.3,0.4,0.5c0.6,0.5,1.3,1.3,1.5,1.6c0.2,0.2,0.2,0.5,0,0.6c-0.1,0-0.2,0.1-0.3,0
							c-0.1,0-0.2-0.1-0.3-0.2c-0.7-0.7-2.5-2.2-3.6-2.9c-0.5-0.3-0.9-0.4-1.3-0.3c0,0-0.2,0.1-0.3,0.2C13.5,0.8,13.7,1,13.7,1
							c0.5,0.4,2.8,2.4,3.2,2.8c0.4,0.4,0.4,0.6,0.2,0.8c-0.2,0.2-0.6,0-0.6-0.1l0,0c-0.1-0.1-0.2-0.1-0.2-0.2
							c-1.1-0.9-3.6-2.4-4.3-2.8c-0.6-0.3-0.9-0.4-1.5-0.1c0,0-0.4,0.2-0.4,0.5s0.1,0.4,0.3,0.6c2.4,1.6,3,1.9,5,3.3
							c0.2,0.1,0.5,0.4,0.2,0.7c-0.1,0.1-0.2,0.1-0.4,0.1c-0.2-0.1-0.4-0.2-0.6-0.2c-1-0.6-2.9-1.6-3.9-1.9c-0.7-0.2-1.1,0-1.3,0.3
							C9,5,9,5.3,9,5.6C9.1,5.8,9.3,6,9.5,6.1c1.3,0.8,2.4,1.3,3.8,2c0.4,0.2,0.5,0.3,0.9,0.6c0.5,0.3,1.2,0.8,1.4,1.3
							c0,0.1,0.1,0.3,0.1,0.4c0,0.2-0.1,0.6-0.5,0.8c-0.6,0.4-1.8,0.3-2.8,0.2c-0.2,0-0.6,0-0.9,0c-0.6,0-0.9,0.2-1,0.4
							c-0.2,0.2-0.2,0.6-0.2,0.8c0,0,0,0.1,0,0.2c0,0.1,0.1,0.2,0.1,0.2c0.2,0.3,0.7,0.4,1.3,0.5c0.9,0.1,2,0.1,3.2,0.1
							c2.8,0.1,5.8-0.1,7.1-1.7C23.1,10.8,23.1,8.2,22.4,6.4z"/>
					</g>
				</g>
			</g>
		</g>
	</g>
</g>
</svg>
