<?xml version="1.0" encoding="UTF-8"?>
<svg width="16px" height="16px" viewBox="0 0 16 16" version="1.1" xmlns="http://www.w3.org/2000/svg" xmlns:xlink="http://www.w3.org/1999/xlink">
    <title>Icons/download Copy</title>
    <g id="Page-1" stroke="none" stroke-width="1" fill="none" fill-rule="evenodd">
        <g id="Icons/download-Copy" fill="#FFFFFF">
            <path d="M15,14 C15.5522847,14 16,14.4477153 16,15 C16,15.5522847 15.5522847,16 15,16 L1,16 C0.44771525,16 0,15.5522847 0,15 C0,14.4477153 0.44771525,14 1,14 L15,14 Z M8,0 C8.55228475,0 9,0.44771525 9,1 L9,8.584 L11.2928932,6.29289322 C11.6834175,5.90236893 12.3165825,5.90236893 12.7071068,6.29289322 C13.0976311,6.68341751 13.0976311,7.31658249 12.7071068,7.70710678 L8.70710678,11.7071068 C8.67922142,11.7349921 8.64969682,11.7612383 8.61868994,11.7856883 L8.70710678,11.7071068 C8.67171273,11.7425008 8.63432558,11.774687 8.59530661,11.8036654 C8.57113069,11.8215099 8.54627495,11.8382813 8.52066019,11.8539326 C8.50861311,11.8613931 8.49639444,11.8685012 8.4840621,11.8753288 C8.46429395,11.8862061 8.4438914,11.8966234 8.42309915,11.9063462 C8.4060985,11.914321 8.38879565,11.9218036 8.37133602,11.9287745 C8.3515792,11.9366843 8.33179768,11.9438775 8.31173641,11.9504533 L8.31214252,11.9502619 L8.29184367,11.9566726 C8.28160232,11.9597872 8.27132083,11.9627338 8.26100354,11.9655125 C8.25036058,11.9684635 8.23985799,11.9711102 8.22929083,11.9735893 L8.202746,11.9793458 C8.18307364,11.9833994 8.16330285,11.9868563 8.14346259,11.9897165 C8.12472775,11.9924869 8.10534946,11.9947092 8.08581099,11.9963697 C8.06792309,11.997855 8.05059097,11.9988772 8.03324678,11.9994506 C8.02240189,11.9998151 8.01122253,12 8,12 L7.96774538,11.9994829 C7.94973363,11.9989053 7.93173451,11.9978436 7.9137692,11.9962979 L7.88337887,11.9932723 L7.88337887,11.9932723 L7.85653741,11.9897165 C7.83669715,11.9868563 7.81692636,11.9833994 7.797254,11.9793458 C7.78834674,11.9776005 7.77950559,11.975653 7.77070917,11.9735893 L7.73899646,11.9655125 C7.72867917,11.9627338 7.71839768,11.9597872 7.70815633,11.9566726 L7.68826359,11.9504533 C7.66820232,11.9438775 7.6484208,11.9366843 7.62894148,11.928896 C7.61120435,11.9218036 7.5939015,11.914321 7.57677845,11.9063266 C7.5561086,11.8966234 7.53570605,11.8862061 7.51572305,11.8751242 C7.50360556,11.8685012 7.49138689,11.8613931 7.47929125,11.8540045 C7.45372505,11.8382813 7.42886931,11.8215099 7.4048407,11.8036865 C7.39879136,11.7992821 7.39292666,11.7948255 7.38710056,11.7902954 C7.35030318,11.7612383 7.32077858,11.7349921 7.29289322,11.7071068 L3.29289322,7.70710678 C2.90236893,7.31658249 2.90236893,6.68341751 3.29289322,6.29289322 C3.68341751,5.90236893 4.31658249,5.90236893 4.70710678,6.29289322 L7,8.585 L7,1 C7,0.44771525 7.44771525,0 8,0 Z" id="Combined-Shape"></path>
        </g>
    </g>
</svg>